<svg width="898" height="256" viewBox="0 0 898 256" fill="none" xmlns="http://www.w3.org/2000/svg">
<path d="M58.4608 195.122C45.2948 193.538 32.1668 191.541 19.0858 189.054C17.2748 188.709 15.4768 188.292 13.6738 187.908C13.7108 187.318 13.7488 186.729 13.7858 186.139C69.9958 193.191 126.436 194.891 183.026 193.71C247.723 192.359 312.218 187.6 376.717 182.807C449.513 177.398 522.294 171.596 595.323 170.415C634.131 169.786 672.949 169.887 711.709 172.463C761.251 175.756 810.217 182.405 857.627 197.888C866.209 200.691 874.689 203.81 883.216 206.784V255.534C882.739 255.302 882.162 255.172 881.799 254.821C851.904 225.942 816.08 207.586 776.674 195.507C745.979 186.097 714.506 180.953 682.63 177.837C631.689 172.857 580.73 174.401 529.765 177.283C471.453 180.581 413.291 185.851 355.09 190.591C284.343 196.35 213.569 201.411 142.518 200.387C114.381 199.982 86.3348 198.476 58.4608 195.122Z" fill="#340304"/>
<path d="M7.016 186.425C7.011 186.564 7.006 186.702 7.002 186.841C3.109 186.362 3.109 186.362 0 184.071C2.779 184.155 4.968 184.09 7.06 185.08C7.045 185.528 7.03 185.977 7.016 186.425Z" fill="#340304"/>
<path d="M7.42695 186.899C7.28595 186.876 7.14395 186.856 7.00195 186.84C7.02095 186.253 7.04095 185.667 7.05995 185.08C9.30495 185.416 11.629 185.238 13.784 186.139C13.747 186.729 13.711 187.319 13.674 187.908C11.476 188.291 9.50795 187.241 7.42695 186.899Z" fill="#340304"/>
<path d="M849.11 100.025C854.843 108.766 860.582 117.503 866.302 126.252C867.293 127.769 868.201 129.338 869.147 130.883C868.61 133.2 867.163 135.097 866.119 137.264C868.001 136.344 870.354 136.742 871.69 134.823C872.385 135.355 872.886 136.022 873.12 136.876C871.992 139.208 874.12 139.432 875.316 140.258C875.457 140.315 875.503 140.416 875.457 140.561C875.411 141.079 875.595 141.446 876.13 141.583L876.107 141.549C876.003 142.13 876.009 142.769 875.308 143.028C873.77 142.016 871.783 141.785 870.528 140.286C869.225 138.043 867.487 138.81 865.744 139.592C865.488 138.925 864.888 138.901 864.314 138.828C864.319 137.951 864.324 137.073 864.33 136.196C865.264 135.364 864.211 135.032 863.855 134.684C861.301 132.179 858.799 129.603 856.067 127.303C854.197 125.728 852.885 123.536 850.608 122.433C850.632 121.485 850.176 121.026 849.222 121.074L849.221 121.072C849.264 120.109 848.807 119.651 847.838 119.712C847.622 119.692 847.404 119.677 847.186 119.668C846.264 117.518 845.476 115.214 842.411 115.538C842.424 114.307 841.345 113.702 840.624 113.21C838.296 111.624 836.406 109.525 834.35 107.692C827.863 101.904 821.499 95.9705 814.961 90.2321C813.721 89.1441 812.569 87.9564 811.312 86.7526C810.958 87.2616 810.77 87.531 810.582 87.8004C809.028 85.6337 806.911 83.7915 806.598 80.9089C806.861 81.4093 807.32 81.1696 807.707 81.2025H844.891C845.006 82.2347 845.069 82.7939 845.131 83.3524C844.457 85.5259 842.489 86.9805 841.827 89.2661C843.266 91.4947 844.478 93.9109 846.388 95.8553C846.476 96.3643 846.68 96.7984 847.164 97.051C847.142 97.6306 847.471 97.9861 847.934 98.2554L847.996 98.37C847.952 98.783 848.154 99.0177 848.539 99.1199L848.534 99.1118C848.525 99.5428 848.705 99.8549 849.11 100.025Z" fill="#7C0304"/>
<path d="M775.071 143.968C776.386 141.448 778.021 139.135 779.702 136.852L779.898 136.777L779.924 136.568C779.982 136.395 780.092 136.268 780.255 136.187C784.139 135.121 787.516 132.932 791.104 131.222C800.164 126.904 809.119 122.365 818.292 118.28C818.994 118.673 819.711 117.384 820.408 118.296C820.502 120.192 818.429 119.29 817.684 120.481V125.253C813.759 132.066 809.15 138.439 804.895 145.042C802.625 148.566 800.55 152.237 797.79 155.432H790.963C790.061 154.148 788.642 153.953 787.477 153.307C783.641 151.51 780.092 149.203 776.435 147.09C776.399 146.413 776.23 145.834 775.41 145.777C774.761 145.731 774.517 145.339 774.481 144.751C774.439 144.539 774.527 144.423 774.741 144.403C774.926 144.313 775.036 144.168 775.071 143.968Z" fill="#7C0304"/>
<path d="M850.608 122.433C852.885 123.536 854.196 125.728 856.066 127.303C858.799 129.603 861.301 132.179 863.856 134.683C864.21 135.033 865.263 135.364 864.329 136.196C863.791 136.027 863.244 135.883 862.718 135.686C859.094 134.337 855.806 132.156 852.214 130.883C846.89 128.997 841.549 127.249 836.705 124.292C835.844 123.766 834.978 123.872 834.089 123.812C832.727 121.973 831.364 120.133 830.002 118.294C829.163 116.232 828.005 114.398 826.255 112.786C825.117 114.279 824.103 115.609 823.089 116.941C820.775 117.607 819.537 115.531 817.521 114.981C818.256 111.828 816.317 109.703 814.881 107.213V103.957C812.532 99.6573 810.195 95.3828 810.797 90.2568L810.582 87.8003C810.77 87.5315 810.957 87.2616 811.311 86.7532C812.569 87.9563 813.721 89.144 814.961 90.232C821.498 95.971 827.862 101.905 834.35 107.692C836.405 109.525 838.296 111.625 840.625 113.21C841.345 113.701 842.424 114.308 842.41 115.537C843.264 117.268 845.216 117.994 846.195 119.628C846.287 119.784 846.844 119.661 847.186 119.668C847.403 119.678 847.621 119.692 847.838 119.712C847.838 120.633 848.291 121.094 849.22 121.073L849.222 121.075C849.205 122.013 849.673 122.462 850.608 122.433Z" fill="#C90305"/>
<path d="M787.392 27.9407C791.063 27.7153 794.732 27.7109 798.401 27.9468C798.012 32.6449 800.718 37.0186 799.639 41.8764C801.65 43.3651 801.032 45.5064 801.178 47.4972C801.363 50.0156 800.292 52.7687 802.354 54.601C803.106 58.6557 801.357 62.669 803.888 66.0778C804 69.5368 803.515 72.981 805.083 76.2252C805.585 77.2611 805.267 78.4736 805.127 79.6061C799.222 71.2459 793.797 62.5674 788.207 53.9997C785.354 49.628 782.266 45.403 779.799 40.7841C780.29 39.4162 781.337 38.3784 782.015 37.0935C783.515 34.2506 784.012 30.9687 785.991 28.3679C786.525 28.4441 787.046 28.4794 787.392 27.9407Z" fill="#340304"/>
<path d="M807.707 81.2031C807.32 81.1697 806.861 81.4087 806.598 80.9084L806.662 80.9369C806.59 79.7213 807.325 78.7851 807.795 77.7664C810.985 70.8459 814.199 63.9365 817.402 57.0216C817.878 55.9943 818.481 55.0066 818.465 53.8158C821.179 57.3776 823.187 61.4472 826.097 64.7626C827.653 64.5997 828.107 63.5303 828.729 62.5878C834.761 53.4356 841.133 44.5069 846.74 35.076C846.835 34.9175 847.115 34.8692 847.309 34.7695C848.297 37.9251 850.524 40.4064 851.966 43.3106C853.15 45.6965 855.162 47.6662 855.559 50.4454C843.794 57.9306 832.009 65.3855 820.274 72.9185C816.053 75.6288 811.641 78.0581 807.707 81.2031Z" fill="#F8ADAE"/>
<path d="M818.464 53.8158C818.479 55.0065 817.876 55.9948 817.4 57.0215C814.197 63.9365 810.983 70.8458 807.793 77.767C807.323 78.785 806.588 79.7213 806.66 80.9368C805.799 80.8953 805.257 80.4866 805.125 79.6061C805.265 78.4735 805.582 77.2611 805.082 76.2251C803.512 72.9816 803.998 69.5362 803.885 66.0778C801.354 62.6683 803.104 58.6557 802.351 54.601C800.289 52.7693 801.361 50.0143 801.176 47.4959C801.031 45.5057 801.649 43.3656 799.637 41.877C800.715 37.0185 798.011 32.6443 798.4 27.9462C799.302 27.7214 800.199 27.7301 801.319 28.0527C806.97 36.5454 812.717 45.1806 818.464 53.8158Z" fill="#5C0505"/>
<path d="M818.292 118.279C809.119 122.365 800.165 126.904 791.104 131.221C787.516 132.931 784.14 135.12 780.256 136.186C781.55 132.722 784.195 130.119 786.124 127.057C789.641 121.477 793.354 116.021 797.035 110.546C797.509 109.841 797.729 108.795 798.843 108.667C799.402 108.686 800.027 108.549 800.511 108.75C806.354 111.174 811.951 114.119 817.63 116.89C818.257 117.196 818.346 117.686 818.292 118.279Z" fill="#F85454"/>
<path d="M855.559 50.4446C855.162 47.6661 853.149 45.6957 851.965 43.3104C850.523 40.4056 848.296 37.925 847.309 34.7694C848.515 33.4399 849.103 31.6466 850.52 30.4744C851.75 30.7481 852.044 29.1789 853.126 29.4161H874.038C873.334 30.8806 872.459 31.7983 872.314 32.9476C871.494 33.1705 870.851 33.3445 870.225 33.5148C869.494 37.5002 864.721 38.5671 863.983 42.4652C860.395 43.742 858.543 46.1124 858.571 49.5522C860.795 50.026 863.199 49.3219 866.362 50.234C864.012 51.2588 864.361 52.6763 864.393 54.0095C863.166 56.5446 861.583 58.8481 859.831 61.0433C858.87 58.8135 857.72 56.6907 857.351 54.1965C857.159 52.9029 857.148 51.2087 855.559 50.4446Z" fill="#9F0405"/>
<path d="M834.092 123.812C834.981 123.872 835.847 123.767 836.708 124.292C841.552 127.25 846.893 128.997 852.217 130.883C855.808 132.156 859.097 134.337 862.72 135.687C863.248 135.883 863.794 136.028 864.333 136.196C864.327 137.073 864.321 137.951 864.316 138.828C859.467 140.584 855.327 143.668 850.803 146.033C850.178 146.36 849.893 147.007 849.69 147.666C844.174 139.922 838.982 131.965 834.092 123.812Z" fill="#5C0505"/>
<path d="M828.088 118.377C823.394 126.432 817.95 134.004 812.893 141.825C809.014 147.825 805.03 153.758 800.921 159.979H771.19C770.636 159.12 770.934 158.35 771.119 157.582H798.508C807.719 143.591 816.871 129.69 826.066 115.723C827.314 116.294 827.856 117.215 828.088 118.377Z" fill="#A3A2A2"/>
<path d="M883.635 33.9587C881.982 35.6858 881.422 38.0747 880.002 39.943C879.185 40.1238 878.724 40.5925 878.762 41.4669C877.646 42.9258 876.624 44.4417 875.912 46.1464C875.068 46.3 874.608 46.7681 874.67 47.6623C873.37 49.0134 872.824 50.8228 871.82 52.3548C871.472 52.4979 871.248 52.7437 871.189 53.1239C862.615 65.7048 854.752 78.7569 845.91 91.1601C844.863 90.8908 843.98 90.4387 843.762 89.1687C843.97 88.0764 844.661 87.1816 845.291 86.2317C849.696 79.5904 854.057 72.9207 858.451 66.2726C865.92 54.9748 873.402 43.6862 880.878 32.3939C881.789 32.4082 882.699 32.423 883.61 32.4373C883.618 32.9444 883.627 33.4509 883.635 33.9587Z" fill="#A3A2A2"/>
<path d="M818.291 118.279C818.344 117.686 818.255 117.196 817.629 116.89C811.949 114.119 806.352 111.174 800.509 108.75C800.026 108.549 799.401 108.687 798.842 108.667C798.996 108.009 799.13 107.363 799.543 106.78C803.392 101.34 806.683 95.5193 810.795 90.2571C810.194 95.3831 812.53 99.6576 814.879 103.958V107.213C816.316 109.703 818.253 111.829 817.519 114.982C819.535 115.532 820.774 117.608 823.087 116.942C823.034 117.54 822.698 117.961 822.241 118.309C821.629 118.305 821.018 118.301 820.407 118.296C819.709 117.384 818.993 118.673 818.291 118.279Z" fill="#9F0405"/>
<path d="M864.393 54.009C864.362 52.6758 864.014 51.2596 866.363 50.2341C863.2 49.322 860.796 50.0267 858.573 49.553C858.545 46.1138 860.396 43.7427 863.984 42.4659C864.722 38.5678 869.495 37.5003 870.226 33.5149C870.853 33.3446 871.495 33.17 872.315 32.9471C872.46 31.7978 873.335 30.8807 874.039 29.4162H853.127C852.046 29.1791 851.751 30.7488 850.521 30.4751C850.767 29.4336 851.42 28.6645 852.276 27.8774H881.174C881.689 28.68 880.885 29.176 880.833 29.8212C879.648 30.9092 878.931 32.339 878.041 33.6425C873.438 40.3958 869.351 47.4934 864.393 54.009Z" fill="#810A0A"/>
<path d="M849.688 147.667C849.891 147.008 850.176 146.361 850.801 146.034C855.325 143.669 859.465 140.584 864.314 138.828C864.888 138.901 865.488 138.926 865.745 139.591C866.118 144.159 863.196 148.363 864.419 152.606C863.995 153.973 862.719 154.416 862.908 155.619C860.234 156.141 857.528 155.691 854.843 155.884L854.882 155.925C854.803 155.501 854.542 155.275 854.12 155.221C853.031 152.476 850.722 150.445 849.688 147.667Z" fill="#B80608"/>
<path d="M822.244 118.309C822.701 117.961 823.037 117.539 823.09 116.941C824.104 115.61 825.119 114.279 826.256 112.786C828.006 114.399 829.164 116.232 830.003 118.295C829.364 118.322 828.725 118.349 828.086 118.377C827.854 117.215 827.313 116.294 826.065 115.723C816.869 129.69 807.718 143.591 798.507 157.582H771.118C770.149 155.961 768.286 157.303 767.107 156.374C766.724 155.692 766.696 155.09 767.502 154.684C767.671 156.578 769.158 155.848 770.093 155.854C778.585 155.914 787.078 155.9 795.57 155.884C796.324 155.883 797.172 156.16 797.792 155.431C800.552 152.236 802.626 148.565 804.896 145.041C809.151 138.439 813.76 132.066 817.685 125.253C819.548 123.163 821.013 120.813 822.244 118.309Z" fill="#E4DDDD"/>
<path d="M864.394 54.0089C869.351 47.4934 873.438 40.3951 878.041 33.6418C878.931 32.3383 879.648 30.9092 880.833 29.8212C880.848 30.6788 880.863 31.5358 880.878 32.3935C873.402 43.6864 865.921 54.9755 858.452 66.2734C854.059 72.9215 849.697 79.5906 845.291 86.2318C844.662 87.1817 843.971 88.0765 843.763 89.1688C843.981 90.4395 844.864 90.8909 845.911 91.1609C845.009 92.8328 846.836 94.2286 846.389 95.8547C844.479 93.9103 843.267 91.4947 841.828 89.2661C842.489 86.9805 844.459 85.5259 845.132 83.3524C850.37 76.139 855.169 68.637 859.832 61.044C861.583 58.8488 863.168 56.5441 864.394 54.0089Z" fill="#E4DDDD"/>
<path d="M785.993 28.3674C784.014 30.9682 783.516 34.2507 782.017 37.0936C781.338 38.3785 780.293 39.4157 779.801 40.7836C776.58 36.849 774.188 32.3856 771.035 27.9247H785.925C785.982 28.0671 786.005 28.2145 785.993 28.3674Z" fill="#B80608"/>
<path d="M886.378 157.29C887.059 157.922 887.535 158.655 887.549 159.627C887.016 160.534 886.132 160.22 885.398 160.222C876.978 160.248 868.558 160.204 860.138 160.271C857.979 160.289 856.345 159.739 855.568 157.575C855.746 157.551 855.922 157.515 856.096 157.468C857.924 157.428 859.752 157.386 861.58 157.346C862.049 157.348 862.517 157.351 862.987 157.353C868.011 157.347 873.036 157.341 878.061 157.335C880.129 157.334 882.197 157.333 884.265 157.332C884.492 157.335 884.719 157.339 884.947 157.342C885.423 157.325 885.9 157.307 886.378 157.29Z" fill="#A3A2A2"/>
<path d="M870.526 140.286C871.782 141.786 873.769 142.017 875.307 143.028C875.41 145.166 877.744 143.627 878.379 144.89C880.534 147.938 882.69 150.987 884.846 154.036C884.875 154.305 884.906 154.573 884.936 154.842C884.912 155.068 884.918 155.292 884.955 155.516C883.343 156.139 881.707 155.859 880.071 155.656C879.211 154.904 879.699 153.661 878.983 152.889C876.143 149.055 871.442 146.772 869.875 141.756C870.07 141.316 870.299 140.801 870.526 140.286Z" fill="#340304"/>
<path d="M797.792 155.431C797.172 156.16 796.324 155.882 795.57 155.883C787.078 155.9 778.586 155.913 770.094 155.854C769.158 155.848 767.671 156.578 767.502 154.684C769.843 152.132 771.1 148.794 773.562 146.329L773.756 146.513C774.11 148.035 772.089 148.629 772.398 150.413C773.764 151.719 773.604 154.459 775.654 155.163H787.262C787.35 154.416 787.414 153.862 787.479 153.306C788.644 153.952 790.063 154.148 790.965 155.431H797.792Z" fill="#931314"/>
<path d="M880.073 155.656C881.708 155.859 883.345 156.138 884.956 155.515C885.036 155.735 885.188 155.883 885.41 155.956C886.111 156.128 886.298 156.67 886.379 157.29C885.901 157.308 885.424 157.326 884.948 157.343C884.836 157.22 884.724 157.096 884.637 157.002C884.514 157.111 884.39 157.221 884.266 157.332C882.198 157.334 880.13 157.335 878.062 157.335C877.507 156.547 876.67 156.75 875.909 156.748C872.316 156.735 868.723 156.735 865.13 156.748C864.369 156.75 863.531 156.552 862.987 157.353C862.518 157.351 862.05 157.348 861.581 157.346C859.731 156.46 857.899 156.297 856.096 157.469C855.923 157.516 855.747 157.552 855.569 157.576C855.327 157.012 855.085 156.447 854.844 155.883C857.528 155.69 860.234 156.14 862.908 155.619C868.629 156.049 874.351 155.974 880.073 155.656Z" fill="#E4DDDD"/>
<path d="M871.691 134.823C870.355 136.742 868.002 136.344 866.119 137.264C867.163 135.097 868.61 133.201 869.148 130.883C870.181 132.077 871.207 133.276 871.691 134.823Z" fill="#B80608"/>
<path d="M878.381 144.889C877.747 143.626 875.411 145.166 875.309 143.028C876.01 142.77 876.005 142.13 876.108 141.548C877.221 142.421 877.901 143.587 878.381 144.889Z" fill="#810A0A"/>
<path d="M875.315 140.258C874.118 139.432 871.991 139.208 873.118 136.875C874.081 137.854 874.933 138.903 875.315 140.258Z" fill="#931314"/>
<path d="M874.67 47.6631C874.607 46.7689 875.067 46.3002 875.911 46.146C876.1 47.1436 875.668 47.6352 874.67 47.6631Z" fill="#E4DDDD"/>
<path d="M878.764 41.4667C878.726 40.5923 879.187 40.1248 880.004 39.944C880.224 40.9669 879.804 41.4673 878.764 41.4667Z" fill="#E4DDDD"/>
<path d="M785.987 28.3674C786 28.2145 785.977 28.0671 785.92 27.9247L787.389 27.9408C787.042 28.4795 786.521 28.4436 785.987 28.3674Z" fill="#5C0505"/>
<path d="M847.933 98.2548C847.47 97.9854 847.141 97.63 847.163 97.051C847.781 97.2219 847.938 97.687 847.933 98.2548Z" fill="#E4DDDD"/>
<path d="M871.191 53.1237C871.25 52.7435 871.474 52.4989 871.823 52.3558C871.812 52.7757 871.592 53.0234 871.191 53.1237Z" fill="#E4DDDD"/>
<path d="M876.132 141.583C875.598 141.446 875.412 141.08 875.458 140.562C875.902 140.757 876.107 141.111 876.132 141.583Z" fill="#810A0A"/>
<path d="M854.121 155.221C854.543 155.274 854.804 155.501 854.883 155.925C854.392 155.947 854.149 155.7 854.121 155.221Z" fill="#E4DDDD"/>
<path d="M849.108 100.025C848.703 99.8556 848.523 99.5435 848.532 99.1125C848.974 99.2593 849.181 99.5541 849.108 100.025Z" fill="#E4DDDD"/>
<path d="M848.538 99.1201C848.153 99.0179 847.95 98.7839 847.994 98.3708C848.364 98.4842 848.558 98.7244 848.538 99.1201Z" fill="#E4DDDD"/>
<path d="M859.835 61.0433C855.172 68.6363 850.373 76.1389 845.133 83.3523C845.071 82.7938 845.009 82.2352 844.894 81.203H807.709C811.644 78.0579 816.055 75.6281 820.276 72.9183C832.011 65.3847 843.797 57.9311 855.562 50.4452C857.151 51.2099 857.162 52.9035 857.353 54.1971C857.724 56.692 858.873 58.8135 859.835 61.0433Z" fill="#5C0505"/>
<path d="M880.073 155.656C874.35 155.974 868.629 156.049 862.907 155.619C862.719 154.416 863.995 153.972 864.419 152.606C863.196 148.364 866.118 144.158 865.744 139.591C867.487 138.809 869.225 138.044 870.528 140.286C870.3 140.801 870.071 141.316 869.876 141.756C871.444 146.771 876.145 149.055 878.984 152.889C879.7 153.661 879.212 154.904 880.073 155.656Z" fill="#5C0505"/>
<path d="M847.186 119.668C846.844 119.661 846.287 119.784 846.194 119.628C845.215 117.994 843.264 117.268 842.41 115.537C845.475 115.215 846.264 117.518 847.186 119.668Z" fill="#9F0405"/>
<path d="M850.607 122.433C849.672 122.462 849.204 122.014 849.221 121.075C850.175 121.027 850.631 121.486 850.607 122.433Z" fill="#9F0405"/>
<path d="M849.219 121.073C848.29 121.094 847.838 120.633 847.838 119.712C848.806 119.652 849.263 120.109 849.219 121.073Z" fill="#9F0405"/>
<path d="M773.752 146.513C774.646 146.706 775.541 146.897 776.434 147.09C780.091 149.203 783.64 151.51 787.476 153.307C787.411 153.862 787.346 154.417 787.259 155.164H775.651C773.602 154.459 773.762 151.719 772.396 150.414C772.087 148.629 774.107 148.036 773.752 146.513Z" fill="#C90305"/>
<path d="M822.244 118.309C821.014 120.813 819.548 123.163 817.686 125.252V120.481C818.43 119.29 820.503 120.192 820.41 118.296C821.021 118.3 821.633 118.305 822.244 118.309Z" fill="#810A0A"/>
<path d="M862.986 157.353C863.53 156.552 864.368 156.75 865.129 156.747C868.722 156.735 872.314 156.735 875.907 156.748C876.668 156.75 877.505 156.547 878.061 157.335C873.035 157.341 868.011 157.347 862.986 157.353Z" fill="#D7D6D6"/>
<path d="M856.096 157.468C857.898 156.297 859.731 156.461 861.58 157.346C859.752 157.387 857.924 157.428 856.096 157.468Z" fill="#D7D6D6"/>
<path d="M774.478 144.75C774.515 145.338 774.758 145.731 775.407 145.776C776.227 145.833 776.397 146.413 776.433 147.089C775.54 146.897 774.645 146.705 773.751 146.513L773.559 146.33C773.621 145.662 773.879 145.106 774.478 144.75Z" fill="#931314"/>
<path d="M883.635 33.9588C883.627 33.4511 883.618 32.9445 883.609 32.4374C884.043 31.8658 884.577 31.8256 884.809 32.4974C885.135 33.4449 884.558 33.8938 883.635 33.9588Z" fill="#E4DDDD"/>
<path d="M885.409 155.957C885.187 155.884 885.035 155.736 884.955 155.516C884.918 155.293 884.912 155.068 884.936 154.842C885.115 154.906 885.3 154.948 885.489 154.967C885.462 155.297 885.436 155.627 885.409 155.957Z" fill="#5C0505"/>
<path d="M779.925 136.567L779.9 136.777L779.704 136.852L779.646 136.588L779.925 136.567Z" fill="#F85454"/>
<path d="M775.071 143.968C775.035 144.168 774.925 144.313 774.741 144.402C774.689 144.136 774.8 143.991 775.071 143.968Z" fill="#931314"/>
<path d="M885.489 154.967C885.3 154.948 885.115 154.906 884.935 154.842C884.906 154.573 884.875 154.306 884.846 154.037C885.321 154.168 885.554 154.464 885.489 154.967Z" fill="#E4DDDD"/>
<path d="M884.266 157.332C884.39 157.221 884.514 157.111 884.638 157.001C884.724 157.096 884.836 157.22 884.948 157.343C884.72 157.34 884.493 157.335 884.266 157.332Z" fill="#D7D6D6"/>
<path d="M879.427 122.735C879.106 121.394 879.321 120.063 879.371 118.692C882.095 117.731 884.88 118.862 887.478 117.985C888.465 117.351 888.025 116.349 888.059 115.508C888.164 112.909 888.185 110.307 888.238 107.706C888.462 107.702 888.684 107.688 888.907 107.662C891.782 107.361 894.386 106.252 896.929 104.962C897.317 106.312 896.798 107.761 897.375 109.091C897.374 109.539 897.372 109.988 897.372 110.437C896.885 111.509 897.119 112.646 897.1 113.754C897.03 117.671 896.996 121.589 896.949 125.506H887.092C884.943 124.036 882.467 123.097 880.143 121.986C879.882 122.259 879.654 122.497 879.427 122.735Z" fill="#7C0304"/>
<path d="M888.241 107.706C888.187 110.306 888.166 112.91 888.062 115.509C888.027 116.35 888.467 117.351 887.48 117.986C887.514 102.31 887.551 86.6357 887.579 70.9598C887.581 69.4836 887.53 68.0073 887.504 66.5311C886.598 65.2642 885.273 65.9837 884.141 65.8518C882.525 65.6629 880.807 66.2079 879.314 65.1533C879.329 64.6753 879.344 64.1978 879.358 63.7198C883.484 62.9197 886.813 60.4558 890.549 58.8421C890.487 58.6186 890.424 58.3944 890.362 58.1709H879.89C883.767 57.1671 887.717 57.6148 891.595 57.9164C893.443 58.0606 895.409 57.8904 897.472 58.5306C897.636 61.6862 897.837 64.7849 897.402 67.8946C896.665 67.1918 896.237 67.7714 895.775 68.2724C893.245 71.0174 890.709 73.7588 888.242 76.4295V87.079C888.267 87.7552 888.293 88.4314 888.319 89.1076C887.951 95.3061 888.12 101.505 888.241 107.706Z" fill="#DF7E80"/>
<path d="M888.315 89.1063C888.29 88.4301 888.264 87.7539 888.238 87.0784C889.78 85.0733 887.973 82.462 889.472 80.2507H897.145L897.396 80.3201C896.912 86.2492 896.929 92.179 897.384 98.1093V100.816C897.254 101.319 897.123 101.822 896.992 102.325C893.966 98.853 892.131 94.6918 890.186 90.5931C889.983 89.5702 889.246 89.216 888.315 89.1063Z" fill="#5C0505"/>
<path d="M897.145 80.2514H889.472C887.972 82.4621 889.78 85.074 888.238 87.0784V76.4289C890.706 73.7582 893.24 71.0168 895.771 68.2718C896.233 67.7708 896.662 67.1912 897.397 67.8934C897.187 72.0101 897.634 76.1404 897.145 80.2514Z" fill="#340304"/>
<path d="M879.888 58.1696H890.36C890.423 58.3931 890.484 58.6179 890.547 58.8414C886.811 60.4551 883.483 62.9191 879.357 63.7191C879.497 61.8664 878.674 59.9201 879.888 58.1696Z" fill="#9F0405"/>
<path d="M879.428 122.735C879.655 122.497 879.883 122.259 880.145 121.986C882.469 123.097 884.944 124.036 887.093 125.507H896.95C897.03 125.715 897.071 125.932 897.077 126.155H879.527C879.158 124.929 879.253 123.834 879.428 122.735Z" fill="#340304"/>
<path d="M897.385 98.1093C896.93 92.179 896.913 86.2498 897.397 80.3201C897.979 86.2511 898.033 92.1802 897.385 98.1093Z" fill="#DF7E80"/>
<path d="M897.074 126.155C897.069 125.932 897.027 125.715 896.947 125.506C896.994 121.589 897.028 117.671 897.098 113.754C897.117 112.646 896.883 111.51 897.37 110.437C898.176 115.541 897.716 120.664 897.578 125.782C897.575 125.91 897.249 126.031 897.074 126.155Z" fill="#DF7E80"/>
<path d="M879.312 65.1521C880.804 66.2073 882.522 65.6636 884.138 65.8518C885.27 65.9837 886.596 65.2642 887.501 66.5305C885.364 66.5256 883.228 66.5218 881.091 66.5144C880.156 66.5107 879.211 66.5101 879.312 65.1521Z" fill="#F8ADAE"/>
<path d="M896.992 102.325C897.123 101.822 897.253 101.319 897.385 100.816C898.021 103.575 898.024 106.334 897.374 109.091C896.797 107.761 897.315 106.312 896.928 104.962C896.949 104.083 896.97 103.204 896.992 102.325Z" fill="#DF7E80"/>
<path d="M896.994 102.324C896.972 103.203 896.95 104.083 896.929 104.962C894.387 106.252 891.783 107.36 888.907 107.662C888.892 102.82 888.853 97.9766 888.88 93.1336C888.885 92.1273 888.354 90.7136 890.188 90.5935C892.132 94.6916 893.967 98.8528 896.994 102.324Z" fill="#C90305"/>
<path d="M890.187 90.5936C888.353 90.7137 888.884 92.128 888.879 93.1343C888.851 97.9767 888.89 102.82 888.906 107.662C888.683 107.687 888.461 107.702 888.238 107.705C888.116 101.505 887.948 95.3053 888.315 89.1074C889.246 89.2164 889.983 89.5706 890.187 90.5936Z" fill="#9F0405"/>
<path d="M761.151 127.139C760.128 127.603 759.168 127.142 758 127.139V59.1746H775.898C776.179 61.8311 776.205 64.2832 775.833 67.1317H768.108C767.445 68.7027 767.693 69.9677 767.691 71.187C767.663 86.1352 767.667 101.083 767.652 116.031C767.651 116.938 767.56 117.846 767.511 118.753C766.537 116.957 764.569 116.538 763.155 115.481C761.594 115.554 760.131 115.278 758.648 115.766V126.263C759.417 126.363 759.973 126.434 760.529 126.505C760.736 126.717 760.944 126.928 761.151 127.139ZM766.646 66.1075C769.332 65.8938 772.076 66.5044 774.709 65.6982C774.972 64.0615 775 62.5958 774.715 61.0799C774.063 60.4836 773.401 59.8811 772.74 59.278C769.13 59.278 765.587 59.2693 762.042 59.2829C761.051 59.2873 759.863 59.0241 759.783 60.6087C757.922 60.7189 758.445 62.1524 758.44 63.1748C758.404 69.9182 758.42 76.6622 758.427 83.4069C758.428 84.3159 758.445 85.2095 758.799 86.0956C760.439 90.1949 761.102 94.6162 762.952 98.8542C764.693 98.7997 765.712 99.9614 766.763 101.534V115.91C767.352 115.166 767.238 114.578 767.238 114.019C767.256 99.3886 767.251 84.7581 767.31 70.1275C767.316 68.7188 766.887 67.4431 766.646 66.1075Z" fill="#931314"/>
<path d="M760.53 126.506C759.974 126.434 759.419 126.363 758.648 126.263V115.767C760.132 115.279 761.595 115.554 763.156 115.481C764.57 116.538 766.538 116.958 767.512 118.753C768.89 119.564 770.413 119.08 771.862 119.249C773.062 119.389 774.36 118.765 775.461 119.689C774.877 121.273 773.86 122.266 772.076 122.414C771.431 122.467 770.819 122.856 770.178 123.048C766.9 124.029 764.014 126.102 760.53 126.506Z" fill="#B80608"/>
<path d="M760.529 126.506C764.014 126.102 766.899 124.029 770.177 123.048C770.818 122.856 771.43 122.467 772.075 122.414C773.859 122.266 774.876 121.273 775.46 119.689L775.639 119.562C775.661 122.071 775.682 124.581 775.704 127.09C770.854 127.377 766.003 127.271 761.151 127.139C760.944 126.929 760.737 126.717 760.529 126.506Z" fill="#5C0505"/>
<path d="M775.705 127.089C775.683 124.58 775.661 122.071 775.639 119.562C776.864 122.06 776.727 124.571 775.705 127.089Z" fill="#DF7E80"/>
<path d="M766.647 66.1078C766.888 67.4434 767.317 68.7191 767.311 70.1278C767.252 84.7584 767.256 99.3889 767.239 114.019C767.239 114.579 767.352 115.166 766.764 115.911V101.534C765.713 99.9617 764.694 98.8 762.953 98.8545C761.103 94.6165 760.44 90.1952 758.8 86.0959C758.445 85.2098 758.429 84.3162 758.427 83.4072C758.421 76.6626 758.405 69.9191 758.441 63.1757C758.446 62.1534 757.923 60.7198 759.784 60.6096C761.136 63.6079 764.129 64.5622 766.647 66.1078Z" fill="#5C0505"/>
<path d="M766.647 66.1076C764.129 64.562 761.136 63.6071 759.783 60.6088C759.863 59.0242 761.051 59.2874 762.043 59.283C765.587 59.2694 769.131 59.2781 772.741 59.2781C773.402 59.8812 774.064 60.4837 774.716 61.08C775.001 62.5959 774.973 64.0616 774.71 65.6983C772.077 66.5045 769.333 65.8939 766.647 66.1076Z" fill="#9F0405"/>
<path d="M32.118 131.387C26.26 131.387 20.5367 130.747 14.948 129.468C9.42667 128.121 4.88167 126.337 1.313 124.115L8.989 106.743C12.3557 108.695 16.1263 110.278 20.301 111.49C24.4757 112.634 28.482 113.207 32.32 113.207C35.6193 113.207 37.976 112.904 39.39 112.298C40.804 111.624 41.511 110.648 41.511 109.369C41.511 107.887 40.5683 106.776 38.683 106.036C36.865 105.295 33.835 104.487 29.593 103.612C24.139 102.467 19.594 101.255 15.958 99.9758C12.322 98.6291 9.15733 96.4744 6.464 93.5117C3.77067 90.4818 2.424 86.4081 2.424 81.2908C2.424 76.8468 3.66967 72.8068 6.161 69.1707C8.65233 65.5347 12.3557 62.6731 17.271 60.5857C22.2537 58.4984 28.28 57.4547 35.35 57.4547C40.198 57.4547 44.945 57.9934 49.591 59.0707C54.3043 60.0807 58.4453 61.5957 62.014 63.6157L54.843 80.8867C47.9077 77.3854 41.3427 75.6348 35.148 75.6348C29.0207 75.6348 25.957 77.1161 25.957 80.0788C25.957 81.4928 26.866 82.5701 28.684 83.3108C30.502 83.9841 33.4983 84.7247 37.673 85.5327C43.0597 86.5428 47.6047 87.7211 51.308 89.0677C55.0113 90.3471 58.2097 92.4681 60.903 95.4308C63.6637 98.3934 65.044 102.433 65.044 107.551C65.044 111.995 63.7983 116.035 61.307 119.671C58.8157 123.239 55.0787 126.101 50.096 128.256C45.1807 130.343 39.188 131.387 32.118 131.387ZM100.619 130.781C94.4916 130.781 88.9702 129.569 84.0549 127.145C79.2069 124.653 75.4026 121.253 72.6419 116.944C69.8812 112.567 68.5009 107.618 68.5009 102.097C68.5009 96.5754 69.8812 91.6601 72.6419 87.3508C75.4026 82.9741 79.2069 79.5738 84.0549 77.1497C88.9702 74.7257 94.4916 73.5137 100.619 73.5137C106.814 73.5137 112.335 74.7257 117.183 77.1497C122.098 79.5738 125.903 82.9741 128.596 87.3508C131.357 91.6601 132.737 96.5754 132.737 102.097C132.737 107.618 131.357 112.567 128.596 116.944C125.903 121.253 122.098 124.653 117.183 127.145C112.335 129.569 106.814 130.781 100.619 130.781ZM100.619 113.005C103.245 113.005 105.4 112.062 107.083 110.177C108.766 108.224 109.608 105.531 109.608 102.097C109.608 98.6628 108.766 96.0031 107.083 94.1178C105.4 92.2324 103.245 91.2898 100.619 91.2898C97.9929 91.2898 95.8382 92.2324 94.1549 94.1178C92.4715 96.0031 91.6299 98.6628 91.6299 102.097C91.6299 105.531 92.4715 108.224 94.1549 110.177C95.8382 112.062 97.9929 113.005 100.619 113.005ZM163.01 130.781C155.738 130.781 150.048 128.963 145.941 125.327C141.901 121.623 139.881 116.304 139.881 109.369V54.8287H162.707V108.157C162.707 109.907 163.145 111.254 164.02 112.197C164.895 113.072 166.141 113.51 167.757 113.51C168.498 113.51 169.238 113.409 169.979 113.207C170.787 113.005 171.427 112.769 171.898 112.5L172.807 129.367C169.575 130.309 166.309 130.781 163.01 130.781ZM239.239 74.5237V129.771H217.524V124.519C215.504 126.606 213.147 128.188 210.454 129.266C207.761 130.276 204.899 130.781 201.869 130.781C194.866 130.781 189.244 128.66 185.002 124.418C180.76 120.108 178.639 113.644 178.639 105.026V74.5237H201.465V101.087C201.465 104.857 202.071 107.551 203.283 109.167C204.495 110.783 206.279 111.591 208.636 111.591C210.858 111.591 212.71 110.715 214.191 108.965C215.672 107.147 216.413 104.319 216.413 100.481V74.5237H239.239ZM287.339 127.852C283.905 129.804 279.226 130.781 273.3 130.781C265.557 130.781 259.598 128.929 255.423 125.226C251.249 121.455 249.161 115.833 249.161 108.359V62.1008H271.987V77.5537H283.299V94.2187H271.987V108.157C271.987 109.84 272.425 111.153 273.3 112.096C274.176 113.038 275.32 113.51 276.734 113.51C278.687 113.51 280.404 113.005 281.885 111.995L287.339 127.852ZM293.058 74.5237H315.884V129.771H293.058V74.5237ZM304.471 70.0797C300.363 70.0797 297.03 69.0024 294.472 66.8477C291.98 64.6257 290.735 61.8314 290.735 58.4647C290.735 55.0981 291.98 52.3374 294.472 50.1827C297.03 47.9607 300.363 46.8497 304.471 46.8497C308.645 46.8497 311.978 47.8934 314.47 49.9807C316.961 52.0681 318.207 54.7614 318.207 58.0607C318.207 61.5621 316.961 64.4574 314.47 66.7468C311.978 68.9688 308.645 70.0797 304.471 70.0797ZM355.19 130.781C349.063 130.781 343.542 129.569 338.626 127.145C333.778 124.653 329.974 121.253 327.213 116.944C324.453 112.567 323.072 107.618 323.072 102.097C323.072 96.5754 324.453 91.6601 327.213 87.3508C329.974 82.9741 333.778 79.5738 338.626 77.1497C343.542 74.7257 349.063 73.5137 355.19 73.5137C361.385 73.5137 366.906 74.7257 371.754 77.1497C376.67 79.5738 380.474 82.9741 383.167 87.3508C385.928 91.6601 387.308 96.5754 387.308 102.097C387.308 107.618 385.928 112.567 383.167 116.944C380.474 121.253 376.67 124.653 371.754 127.145C366.906 129.569 361.385 130.781 355.19 130.781ZM355.19 113.005C357.816 113.005 359.971 112.062 361.654 110.177C363.338 108.224 364.179 105.531 364.179 102.097C364.179 98.6628 363.338 96.0031 361.654 94.1178C359.971 92.2324 357.816 91.2898 355.19 91.2898C352.564 91.2898 350.41 92.2324 348.726 94.1178C347.043 96.0031 346.201 98.6628 346.201 102.097C346.201 105.531 347.043 108.224 348.726 110.177C350.41 112.062 352.564 113.005 355.19 113.005ZM432.832 73.5137C439.633 73.5137 445.087 75.5674 449.194 79.6747C453.369 83.7821 455.456 89.9767 455.456 98.2588V129.771H432.63V102.198C432.63 95.8684 430.375 92.7038 425.863 92.7038C423.305 92.7038 421.217 93.6128 419.601 95.4308C418.053 97.1814 417.278 99.9758 417.278 103.814V129.771H394.452V74.5237H416.167V79.9777C418.322 77.8231 420.813 76.2071 423.641 75.1298C426.469 74.0524 429.533 73.5137 432.832 73.5137ZM492.437 131.387C486.579 131.387 480.856 130.747 475.267 129.468C469.746 128.121 465.201 126.337 461.632 124.115L469.308 106.743C472.675 108.695 476.446 110.278 480.62 111.49C484.795 112.634 488.801 113.207 492.639 113.207C495.939 113.207 498.295 112.904 499.709 112.298C501.123 111.624 501.83 110.648 501.83 109.369C501.83 107.887 500.888 106.776 499.002 106.036C497.184 105.295 494.154 104.487 489.912 103.612C484.458 102.467 479.913 101.255 476.277 99.9758C472.641 98.6291 469.477 96.4744 466.783 93.5117C464.09 90.4818 462.743 86.4081 462.743 81.2908C462.743 76.8468 463.989 72.8068 466.48 69.1707C468.972 65.5347 472.675 62.6731 477.59 60.5857C482.573 58.4984 488.599 57.4547 495.669 57.4547C500.517 57.4547 505.264 57.9934 509.91 59.0707C514.624 60.0807 518.765 61.5957 522.333 63.6157L515.162 80.8867C508.227 77.3854 501.662 75.6348 495.467 75.6348C489.34 75.6348 486.276 77.1161 486.276 80.0788C486.276 81.4928 487.185 82.5701 489.003 83.3108C490.821 83.9841 493.818 84.7247 497.992 85.5327C503.379 86.5428 507.924 87.7211 511.627 89.0677C515.331 90.3471 518.529 92.4681 521.222 95.4308C523.983 98.3934 525.363 102.433 525.363 107.551C525.363 111.995 524.118 116.035 521.626 119.671C519.135 123.239 515.398 126.101 510.415 128.256C505.5 130.343 499.507 131.387 492.437 131.387ZM592.147 74.5237V118.762C592.147 129.266 589.218 137.144 583.36 142.396C577.57 147.715 569.355 150.375 558.716 150.375C553.262 150.375 548.145 149.769 543.364 148.557C538.651 147.412 534.611 145.729 531.244 143.507L538.92 127.953C541.075 129.569 543.768 130.882 547 131.892C550.3 132.902 553.431 133.407 556.393 133.407C560.905 133.407 564.17 132.43 566.19 130.478C568.278 128.525 569.321 125.663 569.321 121.893V121.489C565.349 124.99 560.501 126.741 554.777 126.741C547.775 126.741 542.152 124.62 537.91 120.378C533.668 116.068 531.547 109.604 531.547 100.986V74.5237H554.373V97.0468C554.373 100.817 554.979 103.511 556.191 105.127C557.403 106.743 559.188 107.551 561.544 107.551C563.766 107.551 565.618 106.675 567.099 104.925C568.581 103.107 569.321 100.279 569.321 96.4408V74.5237H592.147ZM640.652 73.5137C647.452 73.5137 652.906 75.5674 657.014 79.6747C661.188 83.7821 663.276 89.9767 663.276 98.2588V129.771H640.45V102.198C640.45 95.8684 638.194 92.7038 633.683 92.7038C631.124 92.7038 629.037 93.6128 627.421 95.4308C625.872 97.1814 625.098 99.9758 625.098 103.814V129.771H602.272V74.5237H623.987V79.9777C626.141 77.8231 628.633 76.2071 631.461 75.1298C634.289 74.0524 637.352 73.5137 640.652 73.5137ZM703.869 130.781C697.607 130.781 691.985 129.569 687.002 127.145C682.087 124.721 678.215 121.32 675.387 116.944C672.626 112.567 671.246 107.618 671.246 102.097C671.246 96.5754 672.626 91.6601 675.387 87.3508C678.215 82.9741 682.087 79.5738 687.002 77.1497C691.985 74.7257 697.607 73.5137 703.869 73.5137C710.602 73.5137 716.359 74.9614 721.14 77.8568C725.921 80.7521 729.22 84.7584 731.038 89.8758L713.363 98.5618C711.208 93.7138 708.01 91.2898 703.768 91.2898C701.075 91.2898 698.819 92.2324 697.001 94.1178C695.25 96.0031 694.375 98.6628 694.375 102.097C694.375 105.598 695.25 108.291 697.001 110.177C698.819 112.062 701.075 113.005 703.768 113.005C708.01 113.005 711.208 110.581 713.363 105.733L731.038 114.419C729.22 119.536 725.921 123.542 721.14 126.438C716.359 129.333 710.602 130.781 703.869 130.781Z" fill="#340304"/>
</svg>
