<svg width="898" height="256" viewBox="0 0 898 256" fill="none" xmlns="http://www.w3.org/2000/svg">
<path d="M58.4598 195.351C45.2939 193.767 32.1658 191.77 19.0848 189.283C17.2738 188.938 15.4759 188.521 13.6729 188.137C13.7098 187.547 13.7478 186.958 13.7849 186.368C69.9948 193.42 126.435 195.12 183.025 193.939C247.722 192.588 312.217 187.829 376.716 183.036C449.512 177.627 522.293 171.825 595.322 170.644C634.13 170.015 672.948 170.116 711.708 172.692C761.25 175.985 810.216 182.634 857.626 198.117C866.208 200.92 874.688 204.039 883.215 207.013V255.763C882.738 255.531 882.161 255.401 881.798 255.05C851.903 226.171 816.079 207.815 776.673 195.736C745.978 186.326 714.505 181.182 682.629 178.066C631.688 173.086 580.729 174.63 529.764 177.512C471.452 180.81 413.29 186.08 355.089 190.82C284.342 196.579 213.568 201.64 142.517 200.616C114.38 200.211 86.3339 198.705 58.4598 195.351Z" fill="white"/>
<path d="M7.016 186.654C7.011 186.793 7.006 186.931 7.002 187.07C3.109 186.591 3.109 186.591 0 184.3C2.779 184.384 4.968 184.319 7.06 185.309C7.045 185.757 7.03 186.206 7.016 186.654Z" fill="white"/>
<path d="M7.42695 187.128C7.28595 187.105 7.14395 187.085 7.00195 187.069C7.02095 186.482 7.04095 185.896 7.05995 185.309C9.30495 185.645 11.629 185.467 13.784 186.368C13.747 186.958 13.711 187.548 13.674 188.137C11.476 188.52 9.50795 187.47 7.42695 187.128Z" fill="white"/>
<path d="M849.11 100.254C854.843 108.995 860.582 117.732 866.302 126.481C867.293 127.998 868.201 129.568 869.147 131.112C868.61 133.43 867.163 135.326 866.119 137.493C868.001 136.573 870.354 136.971 871.69 135.052C872.385 135.585 872.886 136.251 873.12 137.105C871.992 139.437 874.12 139.662 875.316 140.488C875.457 140.545 875.503 140.646 875.457 140.79C875.411 141.308 875.595 141.675 876.13 141.812L876.107 141.778C876.003 142.359 876.009 142.999 875.308 143.257C873.77 142.246 871.783 142.015 870.528 140.515C869.225 138.273 867.487 139.039 865.744 139.821C865.488 139.155 864.888 139.13 864.314 139.057C864.319 138.18 864.324 137.302 864.33 136.426C865.264 135.593 864.211 135.261 863.855 134.913C861.301 132.408 858.799 129.833 856.067 127.532C854.197 125.957 852.885 123.765 850.608 122.662C850.632 121.714 850.176 121.255 849.222 121.303L849.221 121.301C849.264 120.338 848.807 119.88 847.838 119.941C847.622 119.921 847.404 119.906 847.186 119.897C846.264 117.747 845.476 115.444 842.411 115.767C842.424 114.536 841.345 113.931 840.624 113.44C838.296 111.853 836.406 109.755 834.35 107.921C827.863 102.133 821.499 96.1997 814.961 90.4613C813.721 89.3733 812.569 88.1856 811.312 86.9819C810.958 87.4909 810.77 87.7602 810.582 88.0296C809.028 85.8629 806.911 84.0207 806.598 81.1382C806.861 81.6385 807.32 81.3989 807.707 81.4317H844.891C845.006 82.464 845.069 83.0231 845.131 83.5817C844.457 85.7552 842.489 87.2097 841.827 89.4953C843.266 91.7239 844.478 94.1402 846.388 96.0845C846.476 96.5936 846.68 97.0276 847.164 97.2803C847.142 97.8599 847.471 98.2153 847.934 98.4847L847.996 98.5992C847.952 99.0123 848.154 99.247 848.539 99.3491L848.534 99.3411C848.525 99.7721 848.705 100.084 849.11 100.254Z" fill="#7C0304"/>
<path d="M775.071 144.197C776.386 141.677 778.021 139.364 779.702 137.082L779.898 137.007L779.924 136.797C779.982 136.625 780.092 136.498 780.255 136.416C784.139 135.35 787.516 133.161 791.104 131.451C800.164 127.133 809.119 122.594 818.292 118.509C818.994 118.902 819.711 117.613 820.408 118.526C820.502 120.422 818.429 119.52 817.684 120.71V125.482C813.759 132.295 809.15 138.669 804.895 145.271C802.625 148.795 800.55 152.466 797.79 155.661H790.963C790.061 154.377 788.642 154.182 787.477 153.536C783.641 151.739 780.092 149.433 776.435 147.319C776.399 146.642 776.23 146.063 775.41 146.006C774.761 145.961 774.517 145.569 774.481 144.98C774.439 144.769 774.527 144.652 774.741 144.632C774.926 144.543 775.036 144.397 775.071 144.197Z" fill="#7C0304"/>
<path d="M850.608 122.662C852.885 123.765 854.196 125.957 856.066 127.532C858.799 129.833 861.301 132.408 863.856 134.913C864.21 135.262 865.263 135.593 864.329 136.425C863.791 136.256 863.244 136.112 862.718 135.915C859.094 134.566 855.806 132.385 852.214 131.112C846.89 129.226 841.549 127.478 836.705 124.521C835.844 123.995 834.978 124.102 834.089 124.042C832.727 122.202 831.364 120.363 830.002 118.524C829.163 116.461 828.005 114.627 826.255 113.015C825.117 114.508 824.103 115.839 823.089 117.171C820.775 117.836 819.537 115.761 817.521 115.211C818.256 112.058 816.317 109.932 814.881 107.442V104.187C812.532 99.8866 810.195 95.612 810.797 90.486L810.582 88.0295C810.77 87.7608 810.957 87.4908 811.311 86.9824C812.569 88.1856 813.721 89.3733 814.961 90.4613C821.498 96.2003 827.862 102.134 834.35 107.921C836.405 109.755 838.296 111.854 840.625 113.44C841.345 113.931 842.424 114.537 842.41 115.767C843.264 117.497 845.216 118.223 846.195 119.857C846.287 120.013 846.844 119.89 847.186 119.897C847.403 119.907 847.621 119.921 847.838 119.941C847.838 120.862 848.291 121.324 849.22 121.302L849.222 121.304C849.205 122.243 849.673 122.691 850.608 122.662Z" fill="#C90305"/>
<path d="M787.392 28.1699C791.063 27.9445 794.732 27.9402 798.401 28.1761C798.012 32.8742 800.718 37.2478 799.639 42.1057C801.65 43.5943 801.032 45.7356 801.178 47.7264C801.363 50.2449 800.292 52.9979 802.354 54.8303C803.106 58.885 801.357 62.8982 803.888 66.3071C804 69.7661 803.515 73.2103 805.083 76.4544C805.585 77.4904 805.267 78.7028 805.127 79.8354C799.222 71.4752 793.797 62.7967 788.207 54.229C785.354 49.8572 782.266 45.6322 779.799 41.0134C780.29 39.6455 781.337 38.6077 782.015 37.3227C783.515 34.4799 784.012 31.1979 785.991 28.5972C786.525 28.6733 787.046 28.7086 787.392 28.1699Z" fill="#340304"/>
<path d="M807.707 81.4324C807.32 81.399 806.861 81.638 806.598 81.1376L806.662 81.1661C806.59 79.9506 807.325 79.0143 807.795 77.9957C810.985 71.0751 814.199 64.1658 817.402 57.2508C817.878 56.2235 818.481 55.2358 818.465 54.0451C821.179 57.6069 823.187 61.6765 826.097 64.9918C827.653 64.829 828.107 63.7596 828.729 62.8171C834.761 53.6649 841.133 44.7362 846.74 35.3053C846.835 35.1468 847.115 35.0985 847.309 34.9988C848.297 38.1544 850.524 40.6356 851.966 43.5398C853.15 45.9257 855.162 47.8955 855.559 50.6746C843.794 58.1599 832.009 65.6148 820.274 73.1477C816.053 75.8581 811.641 78.2873 807.707 81.4324Z" fill="#F8ADAE"/>
<path d="M818.464 54.045C818.479 55.2358 817.876 56.2241 817.4 57.2508C814.197 64.1657 810.983 71.0751 807.793 77.9962C807.323 79.0142 806.588 79.9505 806.66 81.1661C805.799 81.1246 805.257 80.7159 805.125 79.8353C805.265 78.7028 805.582 77.4903 805.082 76.4543C803.512 73.2108 803.998 69.7654 803.885 66.307C801.354 62.8975 803.104 58.8849 802.351 54.8302C800.289 52.9985 801.361 50.2436 801.176 47.7251C801.031 45.7349 801.649 43.5949 799.637 42.1063C800.715 37.2478 798.011 32.8735 798.4 28.1754C799.302 27.9506 800.199 27.9593 801.319 28.2819C806.97 36.7747 812.717 45.4098 818.464 54.045Z" fill="#5C0505"/>
<path d="M818.292 118.508C809.119 122.594 800.165 127.133 791.104 131.451C787.516 133.16 784.14 135.349 780.256 136.416C781.55 132.951 784.195 130.348 786.124 127.286C789.641 121.706 793.354 116.25 797.035 110.775C797.509 110.07 797.729 109.024 798.843 108.896C799.402 108.916 800.027 108.778 800.511 108.979C806.354 111.403 811.951 114.348 817.63 117.119C818.257 117.426 818.346 117.915 818.292 118.508Z" fill="#F85454"/>
<path d="M855.559 50.6738C855.162 47.8953 853.149 45.9249 851.965 43.5397C850.523 40.6348 848.296 38.1542 847.309 34.9986C848.515 33.6691 849.103 31.8758 850.52 30.7036C851.75 30.9773 852.044 29.4082 853.126 29.6454H874.038C873.334 31.1098 872.459 32.0275 872.314 33.1768C871.494 33.3998 870.851 33.5738 870.225 33.744C869.494 37.7294 864.721 38.7963 863.983 42.6944C860.395 43.9713 858.543 46.3417 858.571 49.7815C860.795 50.2552 863.199 49.5511 866.362 50.4633C864.012 51.4881 864.361 52.9055 864.393 54.2387C863.166 56.7738 861.583 59.0774 859.831 61.2726C858.87 59.0427 857.72 56.92 857.351 54.4257C857.159 53.1321 857.148 51.4379 855.559 50.6738Z" fill="#9F0405"/>
<path d="M834.092 124.041C834.981 124.102 835.847 123.996 836.708 124.522C841.552 127.479 846.893 129.226 852.217 131.113C855.808 132.385 859.097 134.566 862.72 135.916C863.248 136.112 863.794 136.257 864.333 136.426C864.327 137.302 864.321 138.18 864.316 139.057C859.467 140.813 855.327 143.897 850.803 146.263C850.178 146.589 849.893 147.236 849.69 147.896C844.174 140.151 838.982 132.194 834.092 124.041Z" fill="#5C0505"/>
<path d="M828.088 118.606C823.394 126.661 817.95 134.233 812.893 142.054C809.014 148.055 805.03 153.987 800.921 160.208H771.19C770.636 159.349 770.934 158.58 771.119 157.811H798.508C807.719 143.82 816.871 129.919 826.066 115.952C827.314 116.523 827.856 117.444 828.088 118.606Z" fill="#A3A2A2"/>
<path d="M883.635 34.188C881.982 35.915 881.422 38.304 880.002 40.1722C879.185 40.353 878.724 40.8218 878.762 41.6961C877.646 43.155 876.624 44.6709 875.912 46.3757C875.068 46.5292 874.608 46.9974 874.67 47.8915C873.37 49.2427 872.824 51.0521 871.82 52.5841C871.472 52.7271 871.248 52.9729 871.189 53.3531C862.615 65.9341 854.752 78.9862 845.91 91.3894C844.863 91.12 843.98 90.668 843.762 89.3979C843.97 88.3056 844.661 87.4108 845.291 86.4609C849.696 79.8197 854.057 73.1499 858.451 66.5019C865.92 55.204 873.402 43.9155 880.878 32.6232C881.789 32.6374 882.699 32.6523 883.61 32.6665C883.618 33.1737 883.627 33.6802 883.635 34.188Z" fill="#A3A2A2"/>
<path d="M818.291 118.508C818.344 117.915 818.255 117.425 817.629 117.119C811.949 114.348 806.352 111.403 800.509 108.979C800.026 108.778 799.401 108.916 798.842 108.897C798.996 108.238 799.13 107.593 799.543 107.009C803.392 101.569 806.683 95.7485 810.795 90.4863C810.194 95.6123 812.53 99.8869 814.879 104.187V107.443C816.316 109.933 818.253 112.058 817.519 115.212C819.535 115.761 820.774 117.837 823.087 117.171C823.034 117.769 822.698 118.19 822.241 118.539C821.629 118.534 821.018 118.53 820.407 118.525C819.709 117.613 818.993 118.902 818.291 118.508Z" fill="#9F0405"/>
<path d="M864.393 54.2382C864.362 52.905 864.014 51.4888 866.363 50.4634C863.2 49.5513 860.796 50.2559 858.573 49.7822C858.545 46.343 860.396 43.972 863.984 42.6951C864.722 38.7971 869.495 37.7295 870.226 33.7442C870.853 33.5739 871.495 33.3993 872.315 33.1763C872.46 32.027 873.335 31.11 874.039 29.6455H853.127C852.046 29.4083 851.751 30.9781 850.521 30.7044C850.767 29.6628 851.42 28.8937 852.276 28.1067H881.174C881.689 28.9092 880.885 29.4052 880.833 30.0505C879.648 31.1384 878.931 32.5682 878.041 33.8717C873.438 40.6251 869.351 47.7227 864.393 54.2382Z" fill="#810A0A"/>
<path d="M849.688 147.897C849.891 147.237 850.176 146.59 850.801 146.263C855.325 143.898 859.465 140.813 864.314 139.058C864.888 139.131 865.488 139.155 865.745 139.821C866.118 144.388 863.196 148.593 864.419 152.835C863.995 154.202 862.719 154.646 862.908 155.849C860.234 156.37 857.528 155.92 854.843 156.114L854.882 156.155C854.803 155.73 854.542 155.504 854.12 155.451C853.031 152.705 850.722 150.674 849.688 147.897Z" fill="#B80608"/>
<path d="M822.244 118.538C822.701 118.19 823.037 117.768 823.09 117.171C824.104 115.839 825.119 114.508 826.256 113.015C828.006 114.628 829.164 116.462 830.003 118.524C829.364 118.551 828.725 118.579 828.086 118.606C827.854 117.444 827.313 116.523 826.065 115.952C816.869 129.919 807.718 143.82 798.507 157.811H771.118C770.149 156.19 768.286 157.532 767.107 156.603C766.724 155.921 766.696 155.319 767.502 154.913C767.671 156.807 769.158 156.077 770.093 156.084C778.585 156.143 787.078 156.129 795.57 156.113C796.324 156.112 797.172 156.39 797.792 155.66C800.552 152.465 802.626 148.795 804.896 145.271C809.151 138.668 813.76 132.295 817.685 125.482C819.548 123.393 821.013 121.043 822.244 118.538Z" fill="#E4DDDD"/>
<path d="M864.394 54.2382C869.351 47.7226 873.438 40.6244 878.041 33.8711C878.931 32.5676 879.648 31.1384 880.833 30.0504C880.848 30.9081 880.863 31.7651 880.878 32.6227C873.402 43.9156 865.921 55.2048 858.452 66.5027C854.059 73.1507 849.697 79.8198 845.291 86.4611C844.662 87.411 843.971 88.3058 843.763 89.3981C843.981 90.6688 844.864 91.1202 845.911 91.3901C845.009 93.0621 846.836 94.4578 846.389 96.0839C844.479 94.1395 843.267 91.7239 841.828 89.4953C842.489 87.2097 844.459 85.7552 845.132 83.5817C850.37 76.3682 855.169 68.8663 859.832 61.2733C861.583 59.0781 863.168 56.7733 864.394 54.2382Z" fill="#E4DDDD"/>
<path d="M785.993 28.5967C784.014 31.1974 783.516 34.48 782.017 37.3229C781.338 38.6078 780.293 39.645 779.801 41.0129C776.58 37.0783 774.188 32.6149 771.035 28.1539H785.925C785.982 28.2964 786.005 28.4437 785.993 28.5967Z" fill="#B80608"/>
<path d="M886.378 157.519C887.059 158.152 887.535 158.884 887.549 159.856C887.016 160.763 886.132 160.449 885.398 160.451C876.978 160.477 868.558 160.433 860.138 160.5C857.979 160.518 856.345 159.968 855.568 157.804C855.746 157.78 855.922 157.744 856.096 157.697C857.924 157.657 859.752 157.615 861.58 157.575C862.049 157.577 862.517 157.58 862.987 157.582C868.011 157.576 873.036 157.57 878.061 157.564C880.129 157.563 882.197 157.562 884.265 157.561C884.492 157.564 884.719 157.568 884.947 157.571C885.423 157.555 885.9 157.537 886.378 157.519Z" fill="#A3A2A2"/>
<path d="M870.526 140.515C871.782 142.015 873.769 142.246 875.307 143.257C875.41 145.395 877.744 143.856 878.379 145.119C880.534 148.167 882.69 151.216 884.846 154.266C884.875 154.534 884.906 154.802 884.936 155.071C884.912 155.297 884.918 155.521 884.955 155.745C883.343 156.368 881.707 156.089 880.071 155.885C879.211 155.133 879.699 153.89 878.983 153.118C876.143 149.284 871.442 147.001 869.875 141.986C870.07 141.545 870.299 141.03 870.526 140.515Z" fill="#340304"/>
<path d="M797.792 155.66C797.172 156.389 796.324 156.111 795.57 156.113C787.078 156.129 778.586 156.142 770.094 156.084C769.158 156.077 767.671 156.807 767.502 154.913C769.843 152.361 771.1 149.023 773.562 146.559L773.756 146.742C774.11 148.265 772.089 148.858 772.398 150.642C773.764 151.948 773.604 154.688 775.654 155.392H787.262C787.35 154.646 787.414 154.091 787.479 153.535C788.644 154.181 790.063 154.377 790.965 155.66H797.792Z" fill="#931314"/>
<path d="M880.073 155.885C881.708 156.088 883.345 156.368 884.956 155.744C885.036 155.965 885.188 156.112 885.41 156.185C886.111 156.357 886.298 156.9 886.379 157.519C885.901 157.537 885.424 157.555 884.948 157.572C884.836 157.449 884.724 157.326 884.637 157.231C884.514 157.341 884.39 157.451 884.266 157.562C882.198 157.563 880.13 157.564 878.062 157.565C877.507 156.776 876.67 156.98 875.909 156.977C872.316 156.964 868.723 156.965 865.13 156.977C864.369 156.98 863.531 156.781 862.987 157.583C862.518 157.58 862.05 157.577 861.581 157.575C859.731 156.69 857.899 156.526 856.096 157.698C855.923 157.745 855.747 157.781 855.569 157.805C855.327 157.241 855.085 156.676 854.844 156.113C857.528 155.919 860.234 156.37 862.908 155.848C868.629 156.278 874.351 156.204 880.073 155.885Z" fill="#E4DDDD"/>
<path d="M871.691 135.053C870.355 136.972 868.002 136.574 866.119 137.493C867.163 135.326 868.61 133.43 869.148 131.113C870.181 132.306 871.207 133.505 871.691 135.053Z" fill="#B80608"/>
<path d="M878.381 145.118C877.747 143.856 875.411 145.395 875.309 143.258C876.01 142.999 876.005 142.359 876.108 141.778C877.221 142.651 877.901 143.816 878.381 145.118Z" fill="#810A0A"/>
<path d="M875.315 140.487C874.118 139.661 871.991 139.437 873.118 137.104C874.081 138.083 874.933 139.132 875.315 140.487Z" fill="#931314"/>
<path d="M874.67 47.8924C874.607 46.9982 875.067 46.5294 875.911 46.3752C876.1 47.3728 875.668 47.8645 874.67 47.8924Z" fill="#E4DDDD"/>
<path d="M878.764 41.6959C878.726 40.8216 879.187 40.354 880.004 40.1732C880.224 41.1962 879.804 41.6965 878.764 41.6959Z" fill="#E4DDDD"/>
<path d="M785.987 28.5967C786 28.4437 785.977 28.2964 785.92 28.1539L787.389 28.17C787.042 28.7088 786.521 28.6728 785.987 28.5967Z" fill="#5C0505"/>
<path d="M847.933 98.4841C847.47 98.2147 847.141 97.8593 847.163 97.2803C847.781 97.4512 847.938 97.9162 847.933 98.4841Z" fill="#E4DDDD"/>
<path d="M871.191 53.3529C871.25 52.9727 871.474 52.7281 871.823 52.5851C871.812 53.0049 871.592 53.2526 871.191 53.3529Z" fill="#E4DDDD"/>
<path d="M876.132 141.813C875.598 141.675 875.412 141.309 875.458 140.791C875.902 140.987 876.107 141.34 876.132 141.813Z" fill="#810A0A"/>
<path d="M854.121 155.45C854.543 155.503 854.804 155.73 854.883 156.154C854.392 156.176 854.149 155.929 854.121 155.45Z" fill="#E4DDDD"/>
<path d="M849.108 100.255C848.703 100.085 848.523 99.7728 848.532 99.3418C848.974 99.4886 849.181 99.7833 849.108 100.255Z" fill="#E4DDDD"/>
<path d="M848.538 99.3494C848.153 99.2472 847.95 99.0131 847.994 98.6001C848.364 98.7134 848.558 98.9537 848.538 99.3494Z" fill="#E4DDDD"/>
<path d="M859.835 61.2726C855.172 68.8656 850.373 76.3682 845.133 83.5816C845.071 83.023 845.009 82.4645 844.894 81.4322H807.709C811.644 78.2872 816.055 75.8573 820.276 73.1475C832.011 65.614 843.797 58.1603 855.562 50.6744C857.151 51.4392 857.162 53.1328 857.353 54.4264C857.724 56.9212 858.873 59.0427 859.835 61.2726Z" fill="#5C0505"/>
<path d="M880.073 155.885C874.35 156.204 868.629 156.278 862.907 155.848C862.719 154.646 863.995 154.202 864.419 152.835C863.196 148.593 866.118 144.388 865.744 139.82C867.487 139.039 869.225 138.273 870.528 140.515C870.3 141.03 870.071 141.545 869.876 141.986C871.444 147.001 876.145 149.284 878.984 153.118C879.7 153.89 879.212 155.133 880.073 155.885Z" fill="#5C0505"/>
<path d="M847.186 119.897C846.844 119.89 846.287 120.013 846.194 119.857C845.215 118.223 843.264 117.497 842.41 115.767C845.475 115.444 846.264 117.747 847.186 119.897Z" fill="#9F0405"/>
<path d="M850.607 122.662C849.672 122.691 849.204 122.243 849.221 121.304C850.175 121.256 850.631 121.715 850.607 122.662Z" fill="#9F0405"/>
<path d="M849.219 121.302C848.29 121.324 847.838 120.862 847.838 119.942C848.806 119.881 849.263 120.338 849.219 121.302Z" fill="#9F0405"/>
<path d="M773.752 146.742C774.646 146.935 775.541 147.127 776.434 147.319C780.091 149.433 783.64 151.739 787.476 153.536C787.411 154.091 787.346 154.647 787.259 155.393H775.651C773.602 154.688 773.762 151.948 772.396 150.643C772.087 148.858 774.107 148.265 773.752 146.742Z" fill="#C90305"/>
<path d="M822.244 118.538C821.014 121.042 819.548 123.392 817.686 125.482V120.71C818.43 119.519 820.503 120.421 820.41 118.525C821.021 118.529 821.633 118.534 822.244 118.538Z" fill="#810A0A"/>
<path d="M862.986 157.583C863.53 156.781 864.368 156.979 865.129 156.976C868.722 156.965 872.314 156.965 875.907 156.977C876.668 156.98 877.505 156.776 878.061 157.565C873.035 157.57 868.011 157.576 862.986 157.583Z" fill="#D7D6D6"/>
<path d="M856.096 157.698C857.898 156.526 859.731 156.69 861.58 157.576C859.752 157.616 857.924 157.657 856.096 157.698Z" fill="#D7D6D6"/>
<path d="M774.478 144.979C774.515 145.568 774.758 145.96 775.407 146.005C776.227 146.062 776.397 146.643 776.433 147.319C775.54 147.127 774.645 146.934 773.751 146.742L773.559 146.559C773.621 145.891 773.879 145.335 774.478 144.979Z" fill="#931314"/>
<path d="M883.635 34.1881C883.627 33.6803 883.618 33.1738 883.609 32.6666C884.043 32.0951 884.577 32.0548 884.809 32.7267C885.135 33.6741 884.558 34.1231 883.635 34.1881Z" fill="#E4DDDD"/>
<path d="M885.409 156.186C885.187 156.113 885.035 155.965 884.955 155.745C884.918 155.522 884.912 155.297 884.936 155.071C885.115 155.136 885.3 155.177 885.489 155.196C885.462 155.526 885.436 155.856 885.409 156.186Z" fill="#5C0505"/>
<path d="M779.925 136.797L779.9 137.007L779.704 137.081L779.646 136.818L779.925 136.797Z" fill="#F85454"/>
<path d="M775.071 144.197C775.035 144.397 774.925 144.542 774.741 144.631C774.689 144.365 774.8 144.22 775.071 144.197Z" fill="#931314"/>
<path d="M885.489 155.196C885.3 155.177 885.115 155.135 884.935 155.071C884.906 154.803 884.875 154.535 884.846 154.266C885.321 154.397 885.554 154.694 885.489 155.196Z" fill="#E4DDDD"/>
<path d="M884.266 157.561C884.39 157.45 884.514 157.34 884.638 157.23C884.724 157.325 884.836 157.449 884.948 157.572C884.72 157.569 884.493 157.565 884.266 157.561Z" fill="#D7D6D6"/>
<path d="M879.427 122.965C879.106 121.623 879.321 120.292 879.371 118.921C882.095 117.96 884.88 119.091 887.478 118.215C888.465 117.58 888.025 116.579 888.059 115.738C888.164 113.139 888.185 110.536 888.238 107.935C888.462 107.932 888.684 107.917 888.907 107.891C891.782 107.59 894.386 106.481 896.929 105.191C897.317 106.541 896.798 107.99 897.375 109.321C897.374 109.768 897.372 110.217 897.372 110.666C896.885 111.739 897.119 112.875 897.1 113.983C897.03 117.9 896.996 121.818 896.949 125.736H887.092C884.943 124.266 882.467 123.326 880.143 122.215C879.882 122.488 879.654 122.726 879.427 122.965Z" fill="#7C0304"/>
<path d="M888.241 107.935C888.187 110.536 888.166 113.139 888.062 115.738C888.027 116.579 888.467 117.58 887.48 118.215C887.514 102.539 887.551 86.8649 887.579 71.1891C887.581 69.7128 887.53 68.2366 887.504 66.7604C886.598 65.4934 885.273 66.213 884.141 66.0811C882.525 65.8922 880.807 66.4371 879.314 65.3826C879.329 64.9045 879.344 64.4271 879.358 63.949C883.484 63.149 886.813 60.6851 890.549 59.0714C890.487 58.8478 890.424 58.6237 890.362 58.4001H879.89C883.767 57.3963 887.717 57.8441 891.595 58.1456C893.443 58.2899 895.409 58.1196 897.472 58.7599C897.636 61.9155 897.837 65.0141 897.402 68.1239C896.665 67.4211 896.237 68.0007 895.775 68.5016C893.245 71.2467 890.709 73.988 888.242 76.6587V87.3083C888.267 87.9845 888.293 88.6607 888.319 89.3369C887.951 95.5354 888.12 101.734 888.241 107.935Z" fill="#DF7E80"/>
<path d="M888.315 89.3356C888.29 88.6594 888.264 87.9832 888.238 87.3076C889.78 85.3025 887.973 82.6913 889.472 80.48H897.145L897.396 80.5493C896.912 86.4785 896.929 92.4082 897.384 98.3386V101.045C897.254 101.549 897.123 102.051 896.992 102.554C893.966 99.0823 892.131 94.9211 890.186 90.8224C889.983 89.7994 889.246 89.4452 888.315 89.3356Z" fill="#5C0505"/>
<path d="M897.145 80.4807H889.472C887.972 82.6913 889.78 85.3032 888.238 87.3077V76.6582C890.706 73.9874 893.24 71.2461 895.771 68.501C896.233 68.0001 896.662 67.4205 897.397 68.1227C897.187 72.2393 897.634 76.3696 897.145 80.4807Z" fill="#340304"/>
<path d="M879.888 58.3988H890.36C890.423 58.6223 890.484 58.8471 890.547 59.0707C886.811 60.6844 883.483 63.1483 879.357 63.9483C879.497 62.0956 878.674 60.1494 879.888 58.3988Z" fill="#9F0405"/>
<path d="M879.428 122.965C879.655 122.726 879.883 122.488 880.145 122.215C882.469 123.326 884.944 124.266 887.093 125.736H896.95C897.03 125.944 897.071 126.161 897.077 126.385H879.527C879.158 125.159 879.253 124.063 879.428 122.965Z" fill="#340304"/>
<path d="M897.385 98.3386C896.93 92.4082 896.913 86.4791 897.397 80.5493C897.979 86.4803 898.033 92.4094 897.385 98.3386Z" fill="#DF7E80"/>
<path d="M897.074 126.384C897.069 126.161 897.027 125.945 896.947 125.735C896.994 121.818 897.028 117.9 897.098 113.983C897.117 112.875 896.883 111.739 897.37 110.666C898.176 115.77 897.716 120.894 897.578 126.011C897.575 126.14 897.249 126.26 897.074 126.384Z" fill="#DF7E80"/>
<path d="M879.312 65.3813C880.804 66.4365 882.522 65.8928 884.138 66.0811C885.27 66.213 886.596 65.4934 887.501 66.7598C885.364 66.7548 883.228 66.7511 881.091 66.7437C880.156 66.7399 879.211 66.7393 879.312 65.3813Z" fill="#F8ADAE"/>
<path d="M896.992 102.554C897.123 102.051 897.253 101.549 897.385 101.045C898.021 103.804 898.024 106.563 897.374 109.321C896.797 107.99 897.315 106.541 896.928 105.191C896.949 104.312 896.97 103.433 896.992 102.554Z" fill="#DF7E80"/>
<path d="M896.994 102.553C896.972 103.432 896.95 104.312 896.929 105.191C894.387 106.481 891.783 107.59 888.907 107.891C888.892 103.049 888.853 98.2058 888.88 93.3628C888.885 92.3566 888.354 90.9429 890.188 90.8228C892.132 94.9208 893.967 99.082 896.994 102.553Z" fill="#C90305"/>
<path d="M890.187 90.8228C888.353 90.943 888.884 92.3573 888.879 93.3635C888.851 98.2059 888.89 103.049 888.906 107.891C888.683 107.917 888.461 107.931 888.238 107.935C888.116 101.734 887.948 95.5345 888.315 89.3367C889.246 89.4457 889.983 89.7999 890.187 90.8228Z" fill="#9F0405"/>
<path d="M761.151 127.369C760.128 127.832 759.168 127.371 758 127.368V59.4038H775.898C776.179 62.0603 776.205 64.5125 775.833 67.3609H768.108C767.445 68.9319 767.693 70.197 767.691 71.4163C767.663 86.3645 767.667 101.312 767.652 116.26C767.651 117.167 767.56 118.075 767.511 118.982C766.537 117.186 764.569 116.767 763.155 115.71C761.594 115.784 760.131 115.507 758.648 115.995V126.492C759.417 126.592 759.973 126.663 760.529 126.735C760.736 126.946 760.944 127.158 761.151 127.369ZM766.646 66.3367C769.332 66.1231 772.076 66.7336 774.709 65.9274C774.972 64.2908 775 62.8251 774.715 61.3092C774.063 60.7129 773.401 60.1103 772.74 59.5072C769.13 59.5072 765.587 59.4986 762.042 59.5122C761.051 59.5165 759.863 59.2533 759.783 60.8379C757.922 60.9482 758.445 62.3817 758.44 63.404C758.404 70.1475 758.42 76.8915 758.427 83.6362C758.428 84.5452 758.445 85.4387 758.799 86.3249C760.439 90.4242 761.102 94.8455 762.952 99.0835C764.693 99.029 765.712 100.191 766.763 101.763V116.14C767.352 115.395 767.238 114.808 767.238 114.248C767.256 99.6179 767.251 84.9873 767.31 70.3568C767.316 68.948 766.887 67.6724 766.646 66.3367Z" fill="#931314"/>
<path d="M760.53 126.735C759.974 126.664 759.419 126.592 758.648 126.493V115.996C760.132 115.508 761.595 115.784 763.156 115.711C764.57 116.768 766.538 117.187 767.512 118.983C768.89 119.793 770.413 119.31 771.862 119.478C773.062 119.618 774.36 118.994 775.461 119.918C774.877 121.502 773.86 122.495 772.076 122.643C771.431 122.696 770.819 123.086 770.178 123.278C766.9 124.258 764.014 126.332 760.53 126.735Z" fill="#B80608"/>
<path d="M760.529 126.735C764.014 126.332 766.899 124.259 770.177 123.278C770.818 123.086 771.43 122.696 772.075 122.643C773.859 122.495 774.876 121.502 775.46 119.918L775.639 119.791C775.661 122.3 775.682 124.81 775.704 127.319C770.854 127.607 766.003 127.5 761.151 127.368C760.944 127.158 760.737 126.947 760.529 126.735Z" fill="#5C0505"/>
<path d="M775.705 127.318C775.683 124.809 775.661 122.3 775.639 119.791C776.864 122.289 776.727 124.8 775.705 127.318Z" fill="#DF7E80"/>
<path d="M766.647 66.337C766.888 67.6727 767.317 68.9483 767.311 70.3571C767.252 84.9876 767.256 99.6182 767.239 114.249C767.239 114.808 767.352 115.396 766.764 116.14V101.763C765.713 100.191 764.694 99.0293 762.953 99.0838C761.103 94.8458 760.44 90.4245 758.8 86.3252C758.445 85.439 758.429 84.5455 758.427 83.6365C758.421 76.8918 758.405 70.1484 758.441 63.405C758.446 62.3826 757.923 60.9491 759.784 60.8389C761.136 63.8372 764.129 64.7914 766.647 66.337Z" fill="#5C0505"/>
<path d="M766.647 66.3368C764.129 64.7912 761.136 63.8364 759.783 60.8381C759.863 59.2535 761.051 59.5166 762.043 59.5123C765.587 59.4987 769.131 59.5073 772.741 59.5073C773.402 60.1105 774.064 60.713 774.716 61.3093C775.001 62.8252 774.973 64.2909 774.71 65.9275C772.077 66.7338 769.333 66.1232 766.647 66.3368Z" fill="#9F0405"/>
<path d="M32.118 131.616C26.26 131.616 20.5367 130.976 14.948 129.697C9.42667 128.35 4.88167 126.566 1.313 124.344L8.989 106.972C12.3557 108.925 16.1263 110.507 20.301 111.719C24.4757 112.864 28.482 113.436 32.32 113.436C35.6193 113.436 37.976 113.133 39.39 112.527C40.804 111.854 41.511 110.877 41.511 109.598C41.511 108.117 40.5683 107.006 38.683 106.265C36.865 105.524 33.835 104.716 29.593 103.841C24.139 102.696 19.594 101.484 15.958 100.205C12.322 98.8583 9.15733 96.7037 6.464 93.741C3.77067 90.711 2.424 86.6373 2.424 81.52C2.424 77.076 3.66967 73.036 6.161 69.4C8.65233 65.764 12.3557 62.9023 17.271 60.815C22.2537 58.7277 28.28 57.684 35.35 57.684C40.198 57.684 44.945 58.2227 49.591 59.3C54.3043 60.31 58.4453 61.825 62.014 63.845L54.843 81.116C47.9077 77.6147 41.3427 75.864 35.148 75.864C29.0207 75.864 25.957 77.3453 25.957 80.308C25.957 81.722 26.866 82.7993 28.684 83.54C30.502 84.2133 33.4983 84.954 37.673 85.762C43.0597 86.772 47.6047 87.9503 51.308 89.297C55.0113 90.5763 58.2097 92.6973 60.903 95.66C63.6637 98.6227 65.044 102.663 65.044 107.78C65.044 112.224 63.7983 116.264 61.307 119.9C58.8157 123.469 55.0787 126.33 50.096 128.485C45.1807 130.572 39.188 131.616 32.118 131.616ZM100.619 131.01C94.4916 131.01 88.9702 129.798 84.0549 127.374C79.2069 124.883 75.4026 121.482 72.6419 117.173C69.8812 112.796 68.5009 107.847 68.5009 102.326C68.5009 96.8047 69.8812 91.8893 72.6419 87.58C75.4026 83.2033 79.2069 79.803 84.0549 77.379C88.9702 74.955 94.4916 73.743 100.619 73.743C106.814 73.743 112.335 74.955 117.183 77.379C122.098 79.803 125.903 83.2033 128.596 87.58C131.357 91.8893 132.737 96.8047 132.737 102.326C132.737 107.847 131.357 112.796 128.596 117.173C125.903 121.482 122.098 124.883 117.183 127.374C112.335 129.798 106.814 131.01 100.619 131.01ZM100.619 113.234C103.245 113.234 105.4 112.291 107.083 110.406C108.766 108.453 109.608 105.76 109.608 102.326C109.608 98.892 108.766 96.2323 107.083 94.347C105.4 92.4617 103.245 91.519 100.619 91.519C97.9929 91.519 95.8382 92.4617 94.1549 94.347C92.4715 96.2323 91.6299 98.892 91.6299 102.326C91.6299 105.76 92.4715 108.453 94.1549 110.406C95.8382 112.291 97.9929 113.234 100.619 113.234ZM163.01 131.01C155.738 131.01 150.048 129.192 145.941 125.556C141.901 121.853 139.881 116.533 139.881 109.598V55.058H162.707V108.386C162.707 110.137 163.145 111.483 164.02 112.426C164.895 113.301 166.141 113.739 167.757 113.739C168.498 113.739 169.238 113.638 169.979 113.436C170.787 113.234 171.427 112.998 171.898 112.729L172.807 129.596C169.575 130.539 166.309 131.01 163.01 131.01ZM239.239 74.753V130H217.524V124.748C215.504 126.835 213.147 128.418 210.454 129.495C207.761 130.505 204.899 131.01 201.869 131.01C194.866 131.01 189.244 128.889 185.002 124.647C180.76 120.338 178.639 113.874 178.639 105.255V74.753H201.465V101.316C201.465 105.087 202.071 107.78 203.283 109.396C204.495 111.012 206.279 111.82 208.636 111.82C210.858 111.82 212.71 110.945 214.191 109.194C215.672 107.376 216.413 104.548 216.413 100.71V74.753H239.239ZM287.339 128.081C283.905 130.034 279.226 131.01 273.3 131.01C265.557 131.01 259.598 129.158 255.423 125.455C251.249 121.684 249.161 116.062 249.161 108.588V62.33H271.987V77.783H283.299V94.448H271.987V108.386C271.987 110.069 272.425 111.382 273.3 112.325C274.176 113.268 275.32 113.739 276.734 113.739C278.687 113.739 280.404 113.234 281.885 112.224L287.339 128.081ZM293.058 74.753H315.884V130H293.058V74.753ZM304.471 70.309C300.363 70.309 297.03 69.2317 294.472 67.077C291.98 64.855 290.735 62.0607 290.735 58.694C290.735 55.3273 291.98 52.5667 294.472 50.412C297.03 48.19 300.363 47.079 304.471 47.079C308.645 47.079 311.978 48.1227 314.47 50.21C316.961 52.2973 318.207 54.9907 318.207 58.29C318.207 61.7913 316.961 64.6867 314.47 66.976C311.978 69.198 308.645 70.309 304.471 70.309ZM355.19 131.01C349.063 131.01 343.542 129.798 338.626 127.374C333.778 124.883 329.974 121.482 327.213 117.173C324.453 112.796 323.072 107.847 323.072 102.326C323.072 96.8047 324.453 91.8893 327.213 87.58C329.974 83.2033 333.778 79.803 338.626 77.379C343.542 74.955 349.063 73.743 355.19 73.743C361.385 73.743 366.906 74.955 371.754 77.379C376.67 79.803 380.474 83.2033 383.167 87.58C385.928 91.8893 387.308 96.8047 387.308 102.326C387.308 107.847 385.928 112.796 383.167 117.173C380.474 121.482 376.67 124.883 371.754 127.374C366.906 129.798 361.385 131.01 355.19 131.01ZM355.19 113.234C357.816 113.234 359.971 112.291 361.654 110.406C363.338 108.453 364.179 105.76 364.179 102.326C364.179 98.892 363.338 96.2323 361.654 94.347C359.971 92.4617 357.816 91.519 355.19 91.519C352.564 91.519 350.41 92.4617 348.726 94.347C347.043 96.2323 346.201 98.892 346.201 102.326C346.201 105.76 347.043 108.453 348.726 110.406C350.41 112.291 352.564 113.234 355.19 113.234ZM432.832 73.743C439.633 73.743 445.087 75.7967 449.194 79.904C453.369 84.0113 455.456 90.206 455.456 98.488V130H432.63V102.427C432.63 96.0977 430.375 92.933 425.863 92.933C423.305 92.933 421.217 93.842 419.601 95.66C418.053 97.4107 417.278 100.205 417.278 104.043V130H394.452V74.753H416.167V80.207C418.322 78.0523 420.813 76.4363 423.641 75.359C426.469 74.2817 429.533 73.743 432.832 73.743ZM492.437 131.616C486.579 131.616 480.856 130.976 475.267 129.697C469.746 128.35 465.201 126.566 461.632 124.344L469.308 106.972C472.675 108.925 476.446 110.507 480.62 111.719C484.795 112.864 488.801 113.436 492.639 113.436C495.939 113.436 498.295 113.133 499.709 112.527C501.123 111.854 501.83 110.877 501.83 109.598C501.83 108.117 500.888 107.006 499.002 106.265C497.184 105.524 494.154 104.716 489.912 103.841C484.458 102.696 479.913 101.484 476.277 100.205C472.641 98.8583 469.477 96.7037 466.783 93.741C464.09 90.711 462.743 86.6373 462.743 81.52C462.743 77.076 463.989 73.036 466.48 69.4C468.972 65.764 472.675 62.9023 477.59 60.815C482.573 58.7277 488.599 57.684 495.669 57.684C500.517 57.684 505.264 58.2227 509.91 59.3C514.624 60.31 518.765 61.825 522.333 63.845L515.162 81.116C508.227 77.6147 501.662 75.864 495.467 75.864C489.34 75.864 486.276 77.3453 486.276 80.308C486.276 81.722 487.185 82.7993 489.003 83.54C490.821 84.2133 493.818 84.954 497.992 85.762C503.379 86.772 507.924 87.9503 511.627 89.297C515.331 90.5763 518.529 92.6973 521.222 95.66C523.983 98.6227 525.363 102.663 525.363 107.78C525.363 112.224 524.118 116.264 521.626 119.9C519.135 123.469 515.398 126.33 510.415 128.485C505.5 130.572 499.507 131.616 492.437 131.616ZM592.147 74.753V118.991C592.147 129.495 589.218 137.373 583.36 142.625C577.57 147.944 569.355 150.604 558.716 150.604C553.262 150.604 548.145 149.998 543.364 148.786C538.651 147.641 534.611 145.958 531.244 143.736L538.92 128.182C541.075 129.798 543.768 131.111 547 132.121C550.3 133.131 553.431 133.636 556.393 133.636C560.905 133.636 564.17 132.66 566.19 130.707C568.278 128.754 569.321 125.893 569.321 122.122V121.718C565.349 125.219 560.501 126.97 554.777 126.97C547.775 126.97 542.152 124.849 537.91 120.607C533.668 116.298 531.547 109.834 531.547 101.215V74.753H554.373V97.276C554.373 101.047 554.979 103.74 556.191 105.356C557.403 106.972 559.188 107.78 561.544 107.78C563.766 107.78 565.618 106.905 567.099 105.154C568.581 103.336 569.321 100.508 569.321 96.67V74.753H592.147ZM640.652 73.743C647.452 73.743 652.906 75.7967 657.014 79.904C661.188 84.0113 663.276 90.206 663.276 98.488V130H640.45V102.427C640.45 96.0977 638.194 92.933 633.683 92.933C631.124 92.933 629.037 93.842 627.421 95.66C625.872 97.4107 625.098 100.205 625.098 104.043V130H602.272V74.753H623.987V80.207C626.141 78.0523 628.633 76.4363 631.461 75.359C634.289 74.2817 637.352 73.743 640.652 73.743ZM703.869 131.01C697.607 131.01 691.985 129.798 687.002 127.374C682.087 124.95 678.215 121.55 675.387 117.173C672.626 112.796 671.246 107.847 671.246 102.326C671.246 96.8047 672.626 91.8893 675.387 87.58C678.215 83.2033 682.087 79.803 687.002 77.379C691.985 74.955 697.607 73.743 703.869 73.743C710.602 73.743 716.359 75.1907 721.14 78.086C725.921 80.9813 729.22 84.9877 731.038 90.105L713.363 98.791C711.208 93.943 708.01 91.519 703.768 91.519C701.075 91.519 698.819 92.4617 697.001 94.347C695.25 96.2323 694.375 98.892 694.375 102.326C694.375 105.827 695.25 108.521 697.001 110.406C698.819 112.291 701.075 113.234 703.768 113.234C708.01 113.234 711.208 110.81 713.363 105.962L731.038 114.648C729.22 119.765 725.921 123.772 721.14 126.667C716.359 129.562 710.602 131.01 703.869 131.01Z" fill="white"/>
</svg>
